<?xml version="1.0" encoding="UTF-8" standalone="no"?>
<!-- Created with Inkscape (http://www.inkscape.org/) -->

<svg
   width="180"
   height="180"
   viewBox="0 0 180 180"
   version="1.1"
   id="svg1"
   xmlns="http://www.w3.org/2000/svg"
   xmlns:svg="http://www.w3.org/2000/svg">
  <defs
     id="defs1" />
  <g
     id="g52"
     transform="translate(0,9.1093117)">
    <g
       id="layer1"
       style="display:inline"
       transform="translate(-26.234818)">
      <path
         style="fill:#ffffff"
         id="path29"
         d="m 59.891572,19.669947 c -1.8126,0.120984 -3.537586,0.83758 -5.208437,1.500308 -1.996949,0.841348 -3.981792,1.735413 -5.805941,2.915304 -1.3551,0.876502 -1.746178,1.237991 -3.026845,2.252692 -3.373787,2.869068 -6.23196,6.277849 -8.954102,9.754187 -2.735184,3.755803 -5.000998,7.807555 -6.892018,12.043872 -1.734971,3.921474 -2.540466,8.128118 -3.106665,12.351585 -0.497025,4.31836 -0.695694,8.661766 -0.544028,13.004697 0.146691,3.286431 0.68288,6.523691 1.37036,9.733142 0.501014,2.333761 1.180529,4.622958 2.006097,6.861135 0.74292,1.801296 1.376662,3.641752 1.946842,5.503947 0.07382,0.222182 0.147645,0.444363 0.221468,0.666545 0,0 3.280147,1.534413 3.280147,1.534413 v 0 c -0.08166,-0.221723 -0.163327,-0.443446 -0.244991,-0.665169 -0.608696,-1.873077 -1.237751,-3.738577 -2.009864,-5.55237 -0.828093,-2.239326 -1.546247,-4.517706 -2.085526,-6.845267 -0.715898,-3.210674 -1.327409,-6.447909 -1.518754,-9.739641 -0.183591,-4.330165 -0.03073,-8.669381 0.473041,-12.976172 0.59281,-4.186606 1.397793,-8.352619 3.093615,-12.253876 1.853585,-4.222667 4.012155,-8.311962 6.812899,-11.994859 2.725877,-3.448463 5.567362,-6.846601 8.98103,-9.643728 1.247082,-0.954825 1.72422,-1.366838 3.03764,-2.194629 1.839622,-1.159433 3.840175,-2.01275 5.855453,-2.813316 1.709759,-0.62929 3.491304,-1.320824 5.344648,-1.244232 z" />
      <path
         style="fill:#ffffff"
         id="path30"
         d="m 36.30276,99.844223 c 0.435863,-0.03617 0.859431,0.03163 1.263914,0.203447 0.190164,0.0808 0.727148,0.39253 0.548129,0.28938 -3.00689,-1.732512 -3.305361,-1.959081 -2.019288,-1.079053 1.044203,0.71035 1.847984,1.649473 2.605468,2.643973 0.414008,0.54582 0.716902,1.16132 1.075202,1.74258 0,0 3.369994,1.47531 3.369994,1.47531 v 0 c -0.407767,-0.57134 -0.692861,-1.21027 -1.104001,-1.7802 -0.763548,-1.01067 -1.51259,-2.01316 -2.567728,-2.74705 -1.824488,-1.358248 -3.851511,-2.896575 -6.197759,-2.946955 z" />
      <path
         style="fill:#ffffff"
         id="path31"
         d="m 44.37267,105.29032 c 0.704318,-1.21656 1.577796,-2.31724 2.486553,-3.38486 1.136657,-1.55647 2.62979,-2.721318 4.254958,-3.7242 1.591924,-0.822234 3.341391,-1.205603 5.082054,-1.559593 0,0 -2.857892,-1.986077 -2.857892,-1.986077 v 0 c -1.77018,0.394423 -3.560977,0.797751 -5.185719,1.634125 -1.66193,1.019119 -3.20994,2.195441 -4.376854,3.781175 -0.918559,1.09083 -1.792737,2.2138 -2.62377,3.37274 z" />
      <path
         style="fill:#ffffff"
         id="path32"
         d="m 52.586812,93.567565 c -1.319497,-0.09104 -2.581787,-0.527563 -3.822746,-0.956765 -1.203941,-0.53808 -2.408539,-1.091371 -3.653889,-1.528271 0,0 2.885912,2.253736 2.885912,2.253736 v 0 c 1.225096,0.456665 2.417125,0.996141 3.624939,1.495609 1.289282,0.423153 2.593364,0.792354 3.939303,0.987075 z" />
      <path
         style="fill:#ffffff"
         id="path33"
         d="m 46.484186,92.132208 c -0.137101,-2.236725 0.01904,-4.479888 0.174527,-6.711453 0.262294,-2.654351 0.647409,-5.292979 0.966779,-7.940808 0.300388,-2.739721 0.579976,-5.479443 1.084776,-8.19022 0.470147,-2.418687 1.227561,-4.762777 2.009043,-7.094436 0.703867,-2.484932 1.908142,-4.754273 3.171751,-6.988147 1.196905,-2.365248 2.768365,-4.480115 4.601244,-6.383567 2.039882,-2.123722 4.697391,-3.369761 7.360054,-4.51313 1.816598,-0.716087 3.705134,-1.237166 5.632296,-1.545844 1.128951,-0.179723 2.248551,-0.194817 3.373775,-0.006 1.116858,0.263825 2.232255,0.543943 3.289065,0.996137 0,0 -2.870724,-2.255193 -2.870724,-2.255193 v 0 c -1.081481,-0.390452 -2.193435,-0.690292 -3.320901,-0.916689 -1.153283,-0.154189 -2.295037,-0.136277 -3.438328,0.105664 -1.902354,0.380491 -3.769479,0.93379 -5.553809,1.700731 -2.677171,1.204246 -5.362695,2.492955 -7.447015,4.619807 -1.839406,1.933134 -3.42599,4.077405 -4.657795,6.452274 -1.259554,2.259358 -2.468898,4.549775 -3.217184,7.040094 -0.766568,2.356014 -1.559505,4.708462 -1.999409,7.154476 -0.488608,2.716851 -0.792357,5.459185 -1.108701,8.200496 -0.335905,2.659584 -0.681237,5.318966 -0.910251,7.990351 -0.161118,2.195489 -0.365602,4.388369 -0.471938,6.587317 z" />
      <path
         style="fill:#ffffff"
         id="path34"
         d="m 59.19254,19.821748 c -0.006,1.473801 0.150593,2.913194 0.511142,4.341025 0.466898,1.578638 1.227653,3.045913 1.965889,4.510158 0.703171,1.603845 1.7616,2.978866 2.851319,4.332586 1.260438,1.618886 2.562084,3.20301 4.051098,4.617115 1.338145,1.152886 2.814616,2.134981 4.316275,3.06002 1.253919,0.718444 2.507837,1.436887 3.761756,2.15533 0.210596,0.115834 0.83948,0.46847 0.631789,0.347503 -0.843834,-0.491479 -3.388411,-1.943286 -2.540359,-1.459122 1.668149,0.952369 2.953406,1.72481 4.535525,2.51678 0.613064,0.236196 1.248082,0.413611 1.881397,0.586987 0,0 -2.905654,-2.236492 -2.905654,-2.236492 v 0 c -0.624257,-0.183809 -1.255089,-0.361206 -1.844118,-0.642728 -0.294808,-0.143782 -1.163205,-0.605229 -0.881708,-0.436872 0.862378,0.515768 3.480971,2.00941 2.605947,1.515402 -1.22935,-0.694049 -2.443671,-1.414413 -3.668988,-2.115558 -0.204161,-0.116824 -0.821032,-0.459248 -0.619306,-0.338269 0.792066,0.47502 1.593794,0.933738 2.390691,1.400607 -1.514789,-0.909683 -2.991191,-1.890621 -4.3661,-3.002449 C 70.347196,37.596368 69.03559,36.023366 67.78448,34.398535 66.713441,33.070062 65.654724,31.721247 64.948306,30.15451 64.21252,28.704411 63.452142,27.255845 62.937857,25.708509 62.571049,24.333918 62.37577,22.936923 62.507865,21.510991 Z" />
      <path
         style="fill:#ffffff"
         id="path35"
         d="m 75.900941,42.610426 c -0.970837,1.927524 -1.917529,3.857402 -2.753713,5.848792 -1.655493,4.0723 -3.118565,8.217474 -4.482913,12.395173 -0.30369,0.908106 -0.604481,1.817187 -0.91107,2.724319 -0.972128,2.876322 -1.931339,5.745943 -2.718055,8.6805 -0.639274,2.384576 -0.844876,3.423213 -1.380338,5.821637 -0.708023,3.446331 -1.22201,6.93834 -1.434159,10.452196 -0.08661,1.434465 -0.145555,3.983041 -0.185305,5.41514 -0.03396,4.140919 -0.232299,8.304607 0.13093,12.437897 0.06454,0.73442 0.169407,1.46473 0.25411,2.1971 0.40976,3.45854 1.29117,6.81174 2.36215,10.11496 0.757935,2.40069 1.890563,4.63072 3.179245,6.78218 1.265812,2.19078 3.080115,3.91658 4.961998,5.56821 2.118822,1.77134 4.314836,3.45624 6.586495,5.02712 3.258259,2.08327 6.643064,3.96863 10.091612,5.71839 2.489289,1.30637 5.015658,2.5276 7.588977,3.65848 1.69747,0.73401 3.374545,1.51393 5.069025,2.25422 0.18178,0.0693 0.36357,0.13857 0.54535,0.20785 0,0 -2.872313,-2.25428 -2.872313,-2.25428 v 0 c -0.173445,-0.0689 -0.34689,-0.13785 -0.520335,-0.20677 -1.657057,-0.72133 -3.308092,-1.45621 -4.966657,-2.17414 -2.559436,-1.12029 -5.063096,-2.35095 -7.539379,-3.64481 -0.432249,-0.22136 -0.865734,-0.44033 -1.296748,-0.66409 -0.418539,-0.21728 -1.625175,-0.94716 -1.251871,-0.65901 0.539545,0.41647 1.181241,0.68128 1.755778,1.04797 0.387135,0.24709 -0.796312,-0.45781 -1.193196,-0.68891 -0.378202,-0.22022 -0.758542,-0.43695 -1.132042,-0.66505 -0.34566,-0.2111 -0.683399,-0.43491 -1.025098,-0.65236 -2.294446,-1.55534 -4.502664,-3.24112 -6.640807,-5.00449 -1.882438,-1.64237 -3.636123,-3.27764 -4.937157,-5.44187 -1.317673,-2.13461 -2.486631,-4.34729 -3.276423,-6.739 -1.107752,-3.3102 -2.100592,-6.65268 -2.54473,-10.12926 -0.09328,-0.72994 -0.207471,-1.4575 -0.279854,-2.1898 -0.408707,-4.13492 -0.25314,-8.30714 -0.228992,-12.453433 0.157354,-5.307412 0.461217,-10.6271 1.5449,-15.839677 0.639508,-2.940654 1.313657,-5.856849 2.182843,-8.740261 0.749276,-2.485624 1.064877,-3.286369 1.915871,-5.721832 0.3152,-0.902071 0.628482,-1.80481 0.942723,-2.707215 1.459188,-4.121766 2.938509,-8.238478 4.696625,-12.244591 0.885487,-1.954707 1.818849,-3.891106 3.008972,-5.682808 z" />
      <path
         style="fill:#ffffff"
         id="path36"
         d="m 104.29907,147.38037 c -1.03972,-0.98525 -2.04138,-2.00686 -3.00885,-3.06279 -1.311186,-1.38938 -2.692915,-2.70446 -3.957343,-4.13714 -1.324421,-1.4954 -2.478575,-3.12613 -3.443342,-4.87371 -0.954913,-1.65695 -1.429155,-3.49051 -1.821662,-5.34412 -0.315041,-1.72592 -0.461606,-3.48185 -0.419601,-5.23523 -0.04182,-1.82388 0.715797,-3.40091 1.529813,-4.98144 1.320729,-2.38699 3.281418,-4.29474 5.320324,-6.06613 2.285521,-2.05052 4.963051,-3.52807 7.688511,-4.89755 2.18196,-1.07742 4.51432,-1.80424 6.83245,-2.52433 1.69647,-0.46442 3.40592,-0.87891 5.12724,-1.23996 0,0 -2.92643,-2.03218 -2.92643,-2.03218 v 0 c -1.71453,0.3837 -3.41916,0.80837 -5.10894,1.29042 -2.32227,0.72333 -4.64662,1.48245 -6.80998,2.61142 -2.72355,1.42214 -5.426101,2.9165 -7.742121,4.96363 -2.061124,1.81012 -4.051016,3.7526 -5.44874,6.1387 -0.874775,1.61183 -1.708147,3.20901 -1.657677,5.09814 -0.05504,1.78277 0.09337,3.56713 0.410454,5.32281 0.375961,1.87714 0.822445,3.74824 1.767125,5.43373 0.942473,1.78087 2.118523,3.42078 3.425593,4.95276 1.248311,1.4397 2.606482,2.76515 3.931687,4.13345 0.930273,1.03446 1.888928,2.03862 2.870739,3.02431 z" />
      <path
         style="fill:#ffffff"
         id="path37"
         d="m 76.625954,41.212225 c -0.500737,1.423658 -1.084356,2.814786 -1.678091,4.201471 -1.017905,2.529149 -2.039957,5.054126 -2.96238,7.619965 -0.877003,2.473213 -1.481146,5.02629 -1.87914,7.616623 -0.358491,2.937063 -0.602034,5.888805 -0.774368,8.84257 -0.255373,3.030857 -0.05144,6.043705 0.290665,9.05513 0.352736,2.743405 0.79266,5.471302 1.37915,8.17441 0.604012,2.401542 1.130091,4.823226 1.805798,7.206123 0.542717,1.815605 1.25071,3.573599 2.018126,5.304015 0.660071,1.552898 1.517181,3.006508 2.384766,4.449698 0.687013,1.19317 1.503398,2.30264 2.261064,3.44999 0.09908,0.14267 0.198166,0.28534 0.297249,0.42801 0,0 3.361141,1.45384 3.361141,1.45384 v 0 c -0.106566,-0.13941 -0.213132,-0.27881 -0.319698,-0.41822 -0.757335,-1.16059 -1.609473,-2.25869 -2.308027,-3.45796 -0.886272,-1.42561 -1.741655,-2.87544 -2.41768,-4.41471 -0.784586,-1.723549 -1.509098,-3.473537 -2.082505,-5.280319 -0.721787,-2.376519 -1.255523,-4.803212 -1.867345,-7.209388 -0.61051,-2.693081 -1.040341,-5.415342 -1.40983,-8.151379 -0.380754,-2.99326 -0.601873,-5.992656 -0.336293,-9.009785 0.164443,-2.937498 0.409395,-5.872251 0.800928,-8.788743 0.429694,-2.563839 0.936906,-5.119981 1.831888,-7.569604 0.906238,-2.559395 1.902683,-5.08381 3.021488,-7.558567 0.617043,-1.373549 1.208837,-2.757937 1.837007,-4.1261 z" />
      <path
         style="fill:#ffffff"
         id="path38"
         d="m 82.261087,108.42942 c 0.981002,-0.80551 1.970927,-1.60215 3.004807,-2.33917 1.502118,-1.01512 3.093135,-1.89274 4.777186,-2.56366 1.628436,-0.64475 3.320985,-1.07747 5.051013,-1.33131 1.940217,-0.22436 3.897137,-0.22348 5.847507,-0.23595 2.12342,-0.009 4.24681,0.004 6.37017,0.0168 1.70645,-0.0716 3.37598,0.28838 5.03569,0.62906 1.24743,0.3207 2.44589,0.80564 3.63759,1.28974 0.5973,0.19927 1.1417,0.51251 1.72717,0.74203 0,0 -2.89846,-2.28376 -2.89846,-2.28376 v 0 c -0.56424,-0.24339 -1.11724,-0.51403 -1.69884,-0.71556 -1.18759,-0.46962 -2.38479,-0.93726 -3.63674,-1.20614 -1.66547,-0.33379 -3.34565,-0.635316 -5.05336,-0.553631 -2.11399,0.006 -4.22795,0.0053 -6.34194,0.0071 -1.976584,0.01057 -3.963009,-0.01394 -5.926673,0.244721 -1.740622,0.28879 -3.444266,0.74306 -5.080646,1.41132 -1.698774,0.70427 -3.311966,1.59043 -4.834447,2.62348 -1.04215,0.72538 -2.028084,1.53166 -3.100888,2.21157 z" />
    </g>
    <g
       id="g48"
       style="display:inline"
       transform="matrix(-1,0,0,1,204.93619,0)">
      <path
         style="fill:#ffffff"
         id="path39"
         d="m 59.891572,19.669947 c -1.8126,0.120984 -3.537586,0.83758 -5.208437,1.500308 -1.996949,0.841348 -3.981792,1.735413 -5.805941,2.915304 -1.3551,0.876502 -1.746178,1.237991 -3.026845,2.252692 -3.373787,2.869068 -6.23196,6.277849 -8.954102,9.754187 -2.735184,3.755803 -5.000998,7.807555 -6.892018,12.043872 -1.734971,3.921474 -2.540466,8.128118 -3.106665,12.351585 -0.497025,4.31836 -0.695694,8.661766 -0.544028,13.004697 0.146691,3.286431 0.68288,6.523691 1.37036,9.733142 0.501014,2.333761 1.180529,4.622958 2.006097,6.861135 0.74292,1.801296 1.376662,3.641752 1.946842,5.503947 0.07382,0.222182 0.147645,0.444363 0.221468,0.666545 0,0 3.280147,1.534413 3.280147,1.534413 v 0 c -0.08166,-0.221723 -0.163327,-0.443446 -0.244991,-0.665169 -0.608696,-1.873077 -1.237751,-3.738577 -2.009864,-5.55237 -0.828093,-2.239326 -1.546247,-4.517706 -2.085526,-6.845267 -0.715898,-3.210674 -1.327409,-6.447909 -1.518754,-9.739641 -0.183591,-4.330165 -0.03073,-8.669381 0.473041,-12.976172 0.59281,-4.186606 1.397793,-8.352619 3.093615,-12.253876 1.853585,-4.222667 4.012155,-8.311962 6.812899,-11.994859 2.725877,-3.448463 5.567362,-6.846601 8.98103,-9.643728 1.247082,-0.954825 1.72422,-1.366838 3.03764,-2.194629 1.839622,-1.159433 3.840175,-2.01275 5.855453,-2.813316 1.709759,-0.62929 3.491304,-1.320824 5.344648,-1.244232 z" />
      <path
         style="fill:#ffffff"
         id="path40"
         d="m 36.30276,99.844223 c 0.435863,-0.03617 0.859431,0.03163 1.263914,0.203447 0.190164,0.0808 0.727148,0.39253 0.548129,0.28938 -3.00689,-1.732512 -3.305361,-1.959081 -2.019288,-1.079053 1.044203,0.71035 1.847984,1.649473 2.605468,2.643973 0.414008,0.54582 0.716902,1.16132 1.075202,1.74258 0,0 3.369994,1.47531 3.369994,1.47531 v 0 c -0.407767,-0.57134 -0.692861,-1.21027 -1.104001,-1.7802 -0.763548,-1.01067 -1.51259,-2.01316 -2.567728,-2.74705 -1.824488,-1.358248 -3.851511,-2.896575 -6.197759,-2.946955 z" />
      <path
         style="fill:#ffffff"
         id="path41"
         d="m 44.37267,105.29032 c 0.704318,-1.21656 1.577796,-2.31724 2.486553,-3.38486 1.136657,-1.55647 2.62979,-2.721318 4.254958,-3.7242 1.591924,-0.822234 3.341391,-1.205603 5.082054,-1.559593 0,0 -2.857892,-1.986077 -2.857892,-1.986077 v 0 c -1.77018,0.394423 -3.560977,0.797751 -5.185719,1.634125 -1.66193,1.019119 -3.20994,2.195441 -4.376854,3.781175 -0.918559,1.09083 -1.792737,2.2138 -2.62377,3.37274 z" />
      <path
         style="fill:#ffffff"
         id="path42"
         d="m 52.586812,93.567565 c -1.319497,-0.09104 -2.581787,-0.527563 -3.822746,-0.956765 -1.203941,-0.53808 -2.408539,-1.091371 -3.653889,-1.528271 0,0 2.885912,2.253736 2.885912,2.253736 v 0 c 1.225096,0.456665 2.417125,0.996141 3.624939,1.495609 1.289282,0.423153 2.593364,0.792354 3.939303,0.987075 z" />
      <path
         style="fill:#ffffff"
         id="path43"
         d="m 46.484186,92.132208 c -0.137101,-2.236725 0.01904,-4.479888 0.174527,-6.711453 0.262294,-2.654351 0.647409,-5.292979 0.966779,-7.940808 0.300388,-2.739721 0.579976,-5.479443 1.084776,-8.19022 0.470147,-2.418687 1.227561,-4.762777 2.009043,-7.094436 0.703867,-2.484932 1.908142,-4.754273 3.171751,-6.988147 1.196905,-2.365248 2.768365,-4.480115 4.601244,-6.383567 2.039882,-2.123722 4.697391,-3.369761 7.360054,-4.51313 1.816598,-0.716087 3.705134,-1.237166 5.632296,-1.545844 1.128951,-0.179723 2.248551,-0.194817 3.373775,-0.006 1.116858,0.263825 2.232255,0.543943 3.289065,0.996137 0,0 -2.870724,-2.255193 -2.870724,-2.255193 v 0 c -1.081481,-0.390452 -2.193435,-0.690292 -3.320901,-0.916689 -1.153283,-0.154189 -2.295037,-0.136277 -3.438328,0.105664 -1.902354,0.380491 -3.769479,0.93379 -5.553809,1.700731 -2.677171,1.204246 -5.362695,2.492955 -7.447015,4.619807 -1.839406,1.933134 -3.42599,4.077405 -4.657795,6.452274 -1.259554,2.259358 -2.468898,4.549775 -3.217184,7.040094 -0.766568,2.356014 -1.559505,4.708462 -1.999409,7.154476 -0.488608,2.716851 -0.792357,5.459185 -1.108701,8.200496 -0.335905,2.659584 -0.681237,5.318966 -0.910251,7.990351 -0.161118,2.195489 -0.365602,4.388369 -0.471938,6.587317 z" />
      <path
         style="fill:#ffffff"
         id="path44"
         d="m 59.19254,19.821748 c -0.006,1.473801 0.150593,2.913194 0.511142,4.341025 0.466898,1.578638 1.227653,3.045913 1.965889,4.510158 0.703171,1.603845 1.7616,2.978866 2.851319,4.332586 1.260438,1.618886 2.562084,3.20301 4.051098,4.617115 1.338145,1.152886 2.814616,2.134981 4.316275,3.06002 1.253919,0.718444 2.507837,1.436887 3.761756,2.15533 0.210596,0.115834 0.83948,0.46847 0.631789,0.347503 -0.843834,-0.491479 -3.388411,-1.943286 -2.540359,-1.459122 1.668149,0.952369 2.953406,1.72481 4.535525,2.51678 0.613064,0.236196 1.248082,0.413611 1.881397,0.586987 0,0 -2.905654,-2.236492 -2.905654,-2.236492 v 0 c -0.624257,-0.183809 -1.255089,-0.361206 -1.844118,-0.642728 -0.294808,-0.143782 -1.163205,-0.605229 -0.881708,-0.436872 0.862378,0.515768 3.480971,2.00941 2.605947,1.515402 -1.22935,-0.694049 -2.443671,-1.414413 -3.668988,-2.115558 -0.204161,-0.116824 -0.821032,-0.459248 -0.619306,-0.338269 0.792066,0.47502 1.593794,0.933738 2.390691,1.400607 -1.514789,-0.909683 -2.991191,-1.890621 -4.3661,-3.002449 C 70.347196,37.596368 69.03559,36.023366 67.78448,34.398535 66.713441,33.070062 65.654724,31.721247 64.948306,30.15451 64.21252,28.704411 63.452142,27.255845 62.937857,25.708509 62.571049,24.333918 62.37577,22.936923 62.507865,21.510991 Z" />
      <path
         style="fill:#ffffff"
         id="path45"
         d="m 75.900941,42.610426 c -0.970837,1.927524 -1.917529,3.857402 -2.753713,5.848792 -1.655493,4.0723 -3.118565,8.217474 -4.482913,12.395173 -0.30369,0.908106 -0.604481,1.817187 -0.91107,2.724319 -0.972128,2.876322 -1.931339,5.745943 -2.718055,8.6805 -0.639274,2.384576 -0.844876,3.423213 -1.380338,5.821637 -0.708023,3.446331 -1.22201,6.93834 -1.434159,10.452196 -0.08661,1.434465 -0.145555,3.983041 -0.185305,5.41514 -0.03396,4.140919 -0.232299,8.304607 0.13093,12.437897 0.06454,0.73442 0.169407,1.46473 0.25411,2.1971 0.40976,3.45854 1.29117,6.81174 2.36215,10.11496 0.757935,2.40069 1.890563,4.63072 3.179245,6.78218 1.265812,2.19078 3.080115,3.91658 4.961998,5.56821 2.118822,1.77134 4.314836,3.45624 6.586495,5.02712 3.258259,2.08327 6.643064,3.96863 10.091612,5.71839 2.489289,1.30637 5.015658,2.5276 7.588977,3.65848 1.69747,0.73401 3.374545,1.51393 5.069025,2.25422 0.18178,0.0693 0.36357,0.13857 0.54535,0.20785 0,0 -2.872313,-2.25428 -2.872313,-2.25428 v 0 c -0.173445,-0.0689 -0.34689,-0.13785 -0.520335,-0.20677 -1.657057,-0.72133 -3.308092,-1.45621 -4.966657,-2.17414 -2.559436,-1.12029 -5.063096,-2.35095 -7.539379,-3.64481 -0.432249,-0.22136 -0.865734,-0.44033 -1.296748,-0.66409 -0.418539,-0.21728 -1.625175,-0.94716 -1.251871,-0.65901 0.539545,0.41647 1.181241,0.68128 1.755778,1.04797 0.387135,0.24709 -0.796312,-0.45781 -1.193196,-0.68891 -0.378202,-0.22022 -0.758542,-0.43695 -1.132042,-0.66505 -0.34566,-0.2111 -0.683399,-0.43491 -1.025098,-0.65236 -2.294446,-1.55534 -4.502664,-3.24112 -6.640807,-5.00449 -1.882438,-1.64237 -3.636123,-3.27764 -4.937157,-5.44187 -1.317673,-2.13461 -2.486631,-4.34729 -3.276423,-6.739 -1.107752,-3.3102 -2.100592,-6.65268 -2.54473,-10.12926 -0.09328,-0.72994 -0.207471,-1.4575 -0.279854,-2.1898 -0.408707,-4.13492 -0.25314,-8.30714 -0.228992,-12.453433 0.157354,-5.307412 0.461217,-10.6271 1.5449,-15.839677 0.639508,-2.940654 1.313657,-5.856849 2.182843,-8.740261 0.749276,-2.485624 1.064877,-3.286369 1.915871,-5.721832 0.3152,-0.902071 0.628482,-1.80481 0.942723,-2.707215 1.459188,-4.121766 2.938509,-8.238478 4.696625,-12.244591 0.885487,-1.954707 1.818849,-3.891106 3.008972,-5.682808 z" />
      <path
         style="fill:#ffffff"
         id="path46"
         d="m 104.29907,147.38037 c -1.03972,-0.98525 -2.04138,-2.00686 -3.00885,-3.06279 -1.311186,-1.38938 -2.692915,-2.70446 -3.957343,-4.13714 -1.324421,-1.4954 -2.478575,-3.12613 -3.443342,-4.87371 -0.954913,-1.65695 -1.429155,-3.49051 -1.821662,-5.34412 -0.315041,-1.72592 -0.461606,-3.48185 -0.419601,-5.23523 -0.04182,-1.82388 0.715797,-3.40091 1.529813,-4.98144 1.320729,-2.38699 3.281418,-4.29474 5.320324,-6.06613 2.285521,-2.05052 4.963051,-3.52807 7.688511,-4.89755 2.18196,-1.07742 4.51432,-1.80424 6.83245,-2.52433 1.69647,-0.46442 3.40592,-0.87891 5.12724,-1.23996 0,0 -2.92643,-2.03218 -2.92643,-2.03218 v 0 c -1.71453,0.3837 -3.41916,0.80837 -5.10894,1.29042 -2.32227,0.72333 -4.64662,1.48245 -6.80998,2.61142 -2.72355,1.42214 -5.426101,2.9165 -7.742121,4.96363 -2.061124,1.81012 -4.051016,3.7526 -5.44874,6.1387 -0.874775,1.61183 -1.708147,3.20901 -1.657677,5.09814 -0.05504,1.78277 0.09337,3.56713 0.410454,5.32281 0.375961,1.87714 0.822445,3.74824 1.767125,5.43373 0.942473,1.78087 2.118523,3.42078 3.425593,4.95276 1.248311,1.4397 2.606482,2.76515 3.931687,4.13345 0.930273,1.03446 1.888928,2.03862 2.870739,3.02431 z" />
      <path
         style="fill:#ffffff"
         id="path47"
         d="m 76.625954,41.212225 c -0.500737,1.423658 -1.084356,2.814786 -1.678091,4.201471 -1.017905,2.529149 -2.039957,5.054126 -2.96238,7.619965 -0.877003,2.473213 -1.481146,5.02629 -1.87914,7.616623 -0.358491,2.937063 -0.602034,5.888805 -0.774368,8.84257 -0.255373,3.030857 -0.05144,6.043705 0.290665,9.05513 0.352736,2.743405 0.79266,5.471302 1.37915,8.17441 0.604012,2.401542 1.130091,4.823226 1.805798,7.206123 0.542717,1.815605 1.25071,3.573599 2.018126,5.304015 0.660071,1.552898 1.517181,3.006508 2.384766,4.449698 0.687013,1.19317 1.503398,2.30264 2.261064,3.44999 0.09908,0.14267 0.198166,0.28534 0.297249,0.42801 0,0 3.361141,1.45384 3.361141,1.45384 v 0 c -0.106566,-0.13941 -0.213132,-0.27881 -0.319698,-0.41822 -0.757335,-1.16059 -1.609473,-2.25869 -2.308027,-3.45796 -0.886272,-1.42561 -1.741655,-2.87544 -2.41768,-4.41471 -0.784586,-1.723549 -1.509098,-3.473537 -2.082505,-5.280319 -0.721787,-2.376519 -1.255523,-4.803212 -1.867345,-7.209388 -0.61051,-2.693081 -1.040341,-5.415342 -1.40983,-8.151379 -0.380754,-2.99326 -0.601873,-5.992656 -0.336293,-9.009785 0.164443,-2.937498 0.409395,-5.872251 0.800928,-8.788743 0.429694,-2.563839 0.936906,-5.119981 1.831888,-7.569604 0.906238,-2.559395 1.902683,-5.08381 3.021488,-7.558567 0.617043,-1.373549 1.208837,-2.757937 1.837007,-4.1261 z" />
      <path
         style="fill:#ffffff"
         id="path48"
         d="m 82.261087,108.42942 c 0.981002,-0.80551 1.970927,-1.60215 3.004807,-2.33917 1.502118,-1.01512 3.093135,-1.89274 4.777186,-2.56366 1.628436,-0.64475 3.320985,-1.07747 5.051013,-1.33131 1.940217,-0.22436 3.897137,-0.22348 5.847507,-0.23595 2.12342,-0.009 4.24681,0.004 6.37017,0.0168 1.70645,-0.0716 3.37598,0.28838 5.03569,0.62906 1.24743,0.3207 2.44589,0.80564 3.63759,1.28974 0.5973,0.19927 1.1417,0.51251 1.72717,0.74203 0,0 -2.89846,-2.28376 -2.89846,-2.28376 v 0 c -0.56424,-0.24339 -1.11724,-0.51403 -1.69884,-0.71556 -1.18759,-0.46962 -2.38479,-0.93726 -3.63674,-1.20614 -1.66547,-0.33379 -3.34565,-0.635316 -5.05336,-0.553631 -2.11399,0.006 -4.22795,0.0053 -6.34194,0.0071 -1.976584,0.01057 -3.963009,-0.01394 -5.926673,0.244721 -1.740622,0.28879 -3.444266,0.74306 -5.080646,1.41132 -1.698774,0.70427 -3.311966,1.59043 -4.834447,2.62348 -1.04215,0.72538 -2.028084,1.53166 -3.100888,2.21157 z" />
      <path
         style="fill:#ffffff;stroke-width:0.364372"
         d="m 66.315789,142.16506 c -8.28889,-3.87404 -11.331198,-5.78895 -17.032787,-10.7209 -7.841647,-6.78313 -11.369209,-19.81194 -10.354392,-38.24322 0.444002,-8.064031 0.965389,-11.931338 2.396525,-17.775839 1.411388,-5.763857 1.552195,-5.920584 1.622739,-1.806213 0.07195,4.19651 0.72222,8.920694 2.018066,14.661215 1.641691,7.272592 3.421526,11.786787 6.602966,16.747107 1.373348,2.14124 2.004153,2.77649 3.346885,3.37044 1.957895,0.86608 2.334746,0.90632 2.071868,0.22128 -0.253327,-0.66016 2.573684,-2.82856 5.522459,-4.23588 4.079172,-1.94681 6.355762,-2.25948 15.101218,-2.07402 10.33059,0.21907 10.727486,0.37092 5.428851,2.07699 -2.284451,0.73555 -5.055369,1.79406 -6.157596,2.35223 -6.125734,3.10212 -11.552701,7.90257 -13.675666,12.09687 -0.987565,1.95111 -1.077624,2.43696 -1.037686,5.59808 0.08441,6.68087 1.922194,10.76311 7.447245,16.54241 1.791905,1.87437 3.25801,3.5102 3.25801,3.63519 0,0.5093 -1.168026,0.0737 -6.558705,-2.44574 z"
         id="path49"
         transform="matrix(-1,0,0,1,204.93619,0)" />
      <path
         style="fill:#ffffff;stroke-width:0.364372"
         d="M 14.02834,101.02104 C 13.427126,100.4206 12.100304,99.456854 11.079847,98.879382 L 9.2244713,97.829435 7.3465262,92.639416 C 3.9346609,83.210145 3.0773018,77.972068 3.3992132,68.523129 3.7274526,58.888443 4.7761731,54.138937 8.0890226,47.283655 c 2.2681814,-4.69355 4.7575264,-8.516311 8.1481984,-12.512777 4.615788,-5.440465 8.028383,-8.229303 12.666751,-10.35151 3.882098,-1.776188 4.253923,-1.85424 4.253923,-0.892963 0,1.495562 3.185292,7.43045 5.612904,10.458054 1.328657,1.65704 3.308559,3.703611 4.399785,4.547936 l 1.984041,1.535137 -2.605985,0.439094 c -6.809035,1.147285 -12.806895,4.809659 -16.309764,9.958961 -3.578085,5.259872 -6.453903,13.006935 -7.439311,20.040486 -0.71682,5.116456 -1.548463,12.573729 -1.876233,16.824031 l -0.243695,3.160068 1.589331,0.809512 c 0.874133,0.44523 2.081234,1.171224 2.682449,1.613317 0.601215,0.442093 1.748988,1.059442 2.550607,1.371888 l 1.45749,0.568082 -1.025745,0.397399 c -0.564159,0.218573 -1.158419,0.397403 -1.320577,0.397403 -0.704221,0 -4.382522,3.095545 -5.644239,4.750017 -0.758627,0.99478 -1.484662,1.7876 -1.613409,1.76183 -0.128748,-0.0258 -0.725989,-0.53813 -1.327204,-1.13858 z"
         id="path50"
         transform="matrix(-1,0,0,1,204.93619,0)" />
      <path
         style="fill:#ffffff;stroke-width:0.364372"
         d="m 108.38819,141.83198 c 5.99298,-6.4247 7.78053,-10.06732 8.11885,-16.54429 0.18683,-3.57689 0.15523,-3.78146 -0.94853,-6.14014 -1.30973,-2.79883 -5.20417,-7.07736 -8.47383,-9.30958 -2.9975,-2.0464 -7.450343,-4.20262 -10.930903,-5.29311 -4.858722,-1.52227 -4.778412,-1.45591 -2.372239,-1.96038 1.46785,-0.30775 4.563743,-0.39903 9.838062,-0.29008 6.58054,0.13595 7.98924,0.26663 9.71777,0.90153 4.49114,1.64963 8.85289,4.4539 8.47189,5.44678 -0.17652,0.46 -0.0491,0.5184 0.65586,0.30054 2.48986,-0.76946 3.79345,-2.17515 6.58535,-7.10114 3.17762,-5.606572 6.24032,-17.999794 6.75147,-27.319874 l 0.22937,-4.182218 0.66788,2.360356 c 1.32538,4.684045 2.46442,11.210123 2.88554,16.532474 0.55263,6.984536 0.24323,19.420622 -0.5766,23.176062 -0.91451,4.1891 -2.95313,10.00858 -4.43333,12.65542 -2.82078,5.04403 -9.69156,10.87385 -17.34648,14.71839 -3.97683,1.99729 -11.44037,5.41971 -11.81918,5.41971 -0.0907,0 1.24988,-1.5167 2.97905,-3.37045 z"
         id="path51"
         transform="matrix(-1,0,0,1,204.93619,0)" />
      <path
         style="fill:#ffffff;stroke-width:0.364372"
         d="m 161.80823,100.52729 c -1.60818,-2.134007 -3.81964,-3.935326 -6.03375,-4.914733 l -1.75856,-0.777899 1.8533,-0.959837 c 1.01932,-0.527914 2.76655,-1.444908 3.88273,-2.037772 l 2.02943,-1.07793 v -2.209722 c 0,-2.345677 -1.56758,-16.783452 -2.20815,-20.337559 -1.60861,-8.925169 -6.54751,-18.712966 -11.36337,-22.519691 -3.25904,-2.576123 -10.46197,-5.428989 -13.70714,-5.428989 h -1.24067 l 1.05116,-0.789189 c 4.74589,-3.563109 9.20295,-9.61776 10.90048,-14.807665 0.34055,-1.041164 0.7276,-1.893025 0.86011,-1.893025 0.13251,0 2.0761,0.90283 4.31908,2.006289 3.50231,1.722998 4.57165,2.478076 7.57316,5.347533 5.81896,5.562969 8.98179,9.817748 12.41024,16.694829 2.22619,4.465471 3.47479,8.454493 4.27691,13.6639 1.77052,11.498557 0.8647,20.615943 -3.16146,31.821329 l -1.87635,5.222139 -2.38132,1.585844 c -1.30972,0.872213 -2.68787,1.924578 -3.06254,2.338588 -0.37468,0.41401 -0.77879,0.74768 -0.89803,0.74148 -0.11925,-0.006 -0.77861,-0.75676 -1.46526,-1.66792 z"
         id="path52"
         transform="matrix(-1,0,0,1,204.93619,0)" />
    </g>
  </g>
</svg>
